# xmcd CD database file
#
# Track frame offsets:
#	150
#	17200
#	33950
#	52025
#	81415
#	97575
#	116835
#	121237
#	140250
#	166375
#	184050
#
# Disc length: 2529 seconds
#
# Revision: 1
# Processed by: cddbd v1.5.2PL0 Copyright (c) Steve Scherf et al.
# Submitted via: CDex 1.70beta2
#
DISCID=8b09df0b
DTITLE=ANDY J. FOREST BAND - SHUFFLE CITY
DYEAR=1989
DGENRE=Blues Rock
TTITLE0=Mellow down easy
TTITLE1=Travellin' Bag
TTITLE2=Shake it
TTITLE3=Louisiana
TTITLE4=Rocket 88
TTITLE5=I don't care
TTITLE6=Train
TTITLE7=Sweet Disposition
TTITLE8=Bad
TTITLE9=Too many drivers
TTITLE10=Cherry Pink and Apple Blossom White
EXTD=YEAR: 1989
EXTT0=
EXTT1=
EXTT2=
EXTT3=
EXTT4=
EXTT5=
EXTT6=
EXTT7=
EXTT8=
EXTT9=
EXTT10=
PLAYORDER=
